<svg width="20" height="20" viewBox="0 0 20 20" fill="none" xmlns="http://www.w3.org/2000/svg">
<path fill-rule="evenodd" clip-rule="evenodd" d="M8.78501 18.3C8.33202 18.3 7.9456 17.9721 7.87181 17.5252C7.80391 17.1636 7.54358 16.8682 7.19341 16.7554C6.90808 16.6574 6.62909 16.5418 6.35806 16.4094C6.03556 16.2444 5.64868 16.2691 5.34972 16.4736C4.98794 16.7338 4.49096 16.6935 4.1758 16.3785L2.94997 15.1526C2.62007 14.8227 2.5772 14.3026 2.84864 13.9231C3.05798 13.6173 3.08813 13.2229 2.92772 12.8888C2.82204 12.6567 2.72881 12.4191 2.64845 12.177C2.53337 11.7956 2.21568 11.5098 1.82423 11.4356C1.35217 11.3602 1.00368 10.9547 1.00001 10.4767V8.94317C0.997499 8.39214 1.39549 7.92084 1.93915 7.83103C2.35159 7.75257 2.69598 7.47008 2.85358 7.08095C2.90054 6.97138 2.94997 6.86264 3.00187 6.75472C3.21147 6.35119 3.18252 5.86514 2.92649 5.48935C2.6063 5.04434 2.65546 4.43293 3.04265 4.0448L3.94348 3.14396C4.38778 2.69951 5.0885 2.64199 5.59934 3.00804L5.62776 3.02781C6.00921 3.28454 6.49459 3.33104 6.91784 3.15138C7.37064 2.9884 7.70435 2.59931 7.79644 2.12697L7.80879 2.08496C7.91055 1.45965 8.45052 1.00025 9.08405 1H10.1715C10.8221 0.999703 11.3774 1.47028 11.4838 2.11214L11.5036 2.19864C11.5909 2.65113 11.9073 3.0256 12.3389 3.18721C12.7548 3.36573 13.2332 3.31911 13.6068 3.06364L13.6685 3.01916C14.1926 2.64145 14.9133 2.69954 15.3701 3.15632L16.1993 3.98672C16.6148 4.40459 16.6671 5.0617 16.3229 5.54001C16.0532 5.93979 16.0188 6.45352 16.2327 6.88571L16.2858 7.00928C16.459 7.43122 16.8337 7.7371 17.2818 7.82238C17.8674 7.91784 18.2981 8.42276 18.3 9.01608V10.3914C18.2998 10.9146 17.9214 11.3609 17.4053 11.4467C16.9809 11.5281 16.6351 11.8355 16.5045 12.2475C16.4468 12.4122 16.3826 12.577 16.3117 12.7418C16.1469 13.1038 16.1834 13.5257 16.4081 13.8539C16.7046 14.2664 16.6586 14.833 16.2994 15.1922L15.1489 16.3439C14.8199 16.6728 14.3011 16.7152 13.9231 16.444C13.6076 16.2284 13.1988 16.2046 12.8604 16.3822C12.6193 16.5016 12.3718 16.6076 12.119 16.6997C11.7655 16.8217 11.505 17.1242 11.4368 17.4918C11.3648 17.9543 10.9682 18.2965 10.5002 18.3H8.78501Z" stroke="#7E7E7E" stroke-width="1.5" stroke-linecap="round" stroke-linejoin="round"/>
<path fill-rule="evenodd" clip-rule="evenodd" d="M12.7658 9.885C12.7658 11.4783 11.4751 12.77 9.88292 12.77C8.29073 12.77 7 11.4783 7 9.885C7 8.29166 8.29073 7 9.88292 7C11.4751 7 12.7658 8.29166 12.7658 9.885Z" stroke="#7E7E7E" stroke-width="1.5" stroke-linecap="round" stroke-linejoin="round"/>
</svg>
