<svg width="24" height="24" viewBox="0 0 24 24" fill="none" xmlns="http://www.w3.org/2000/svg">
<path d="M3 17V17C3 19.2091 4.79086 21 7 21H13.8C16.7998 21 18.2997 21 19.3511 20.2361C19.6907 19.9893 19.9893 19.6907 20.2361 19.3511C21 18.2997 21 16.7998 21 13.8V7.5M3 17V10.2C3 7.20021 3 5.70032 3.76393 4.64886C4.01065 4.30928 4.30928 4.01065 4.64886 3.76393C5.70032 3 7.20021 3 10.2 3H16.5C16.9643 3 17.1965 3 17.3921 3.01926C19.2912 3.20631 20.7937 4.70882 20.9807 6.60793C21 6.80349 21 7.03566 21 7.5V7.5M3 17L6.56725 14.7299C7.39938 14.2004 7.81544 13.9356 8.27379 13.8835C8.42411 13.8663 8.57589 13.8663 8.72621 13.8835C9.18456 13.9356 9.60062 14.2004 10.4328 14.7299L11.1635 15.1949C12.3525 15.9516 12.947 16.3299 13.5664 16.3087C13.767 16.3018 13.9654 16.2648 14.155 16.1988C14.7404 15.9952 15.1584 15.4279 15.9944 14.2933L21 7.5" stroke="#F40505" stroke-width="1.5" stroke-linejoin="round"/>
<circle cx="8.375" cy="8.375" r="2" stroke="#F40505" stroke-width="1.5"/>
</svg>
