<svg width="24" height="24" viewBox="0 0 24 24" fill="none" xmlns="http://www.w3.org/2000/svg">
<path d="M18.5715 15.8316C19.992 15.2988 21 13.9564 21 12.3846C21 10.3454 19.3034 8.69231 17.2105 8.69231C17.0011 8.69231 16.7955 8.70887 16.5953 8.74072C16.3278 8.78328 16.0572 8.63429 15.9669 8.38523C15.2518 6.41304 13.3216 5 11.0526 5C8.45375 5 6.29927 6.8539 5.90618 9.27846C5.87158 9.49184 5.70324 9.66302 5.4885 9.71676C4.05753 10.0748 3 11.3402 3 12.8462C3 14.4873 4.2559 15.8427 5.88234 16.0496C5.92499 16.055 5.96667 16.065 6.00669 16.0803" stroke="#A4FF79" stroke-width="1.5" stroke-linecap="round"/>
<path d="M12 19V13M12 13L9 14.8462M12 13L15 14.8462" stroke="#A4FF79" stroke-width="1.5" stroke-linecap="round" stroke-linejoin="round"/>
</svg>
