<svg width="16" height="23" viewBox="0 0 16 23" fill="none" xmlns="//www.w3.org/2000/svg">
<path fill-rule="evenodd" clip-rule="evenodd" d="M15.0082 20.1618V4.03966C15.0135 3.41555 14.7706 2.81491 14.333 2.36988C13.8955 1.92485 13.299 1.67189 12.6749 1.66666H3.34156C2.71745 1.67189 2.12099 1.92485 1.6834 2.36988C1.24581 2.81491 1.00294 3.41555 1.00822 4.03966V20.1618C0.952759 20.6273 1.18131 21.0808 1.58848 21.3132C1.99565 21.5455 2.50235 21.5116 2.87489 21.227L7.30823 17.3992C7.70788 17.0385 8.31558 17.0385 8.71522 17.3992L13.1416 21.2282C13.5143 21.513 14.0213 21.5468 14.4286 21.3142C14.8359 21.0815 15.0642 20.6275 15.0082 20.1618Z" stroke="#808080" stroke-width="1.5" stroke-linecap="round" stroke-linejoin="round"/>
</svg>
