<svg width="23" height="15" viewBox="0 0 23 15" fill="none" xmlns="//www.w3.org/2000/svg">
<path d="M1.29199 6.22933C0.739707 6.22933 0.291992 6.67704 0.291992 7.22933C0.291992 7.78161 0.739707 8.22933 1.29199 8.22933V6.22933ZM21.7087 8.22933C22.2609 8.22933 22.7087 7.78161 22.7087 7.22933C22.7087 6.67704 22.2609 6.22933 21.7087 6.22933V8.22933ZM1.29199 0.395996C0.739707 0.395996 0.291992 0.843711 0.291992 1.396C0.291992 1.94828 0.739707 2.396 1.29199 2.396V0.395996ZM14.9026 2.396C15.4549 2.396 15.9026 1.94828 15.9026 1.396C15.9026 0.843711 15.4549 0.395996 14.9026 0.395996V2.396ZM1.29199 12.0627C0.739707 12.0627 0.291992 12.5104 0.291992 13.0627C0.291992 13.6149 0.739707 14.0627 1.29199 14.0627V12.0627ZM14.9026 14.0627C15.4549 14.0627 15.9026 13.6149 15.9026 13.0627C15.9026 12.5104 15.4549 12.0627 14.9026 12.0627V14.0627ZM1.29199 8.22933H21.7087V6.22933H1.29199V8.22933ZM1.29199 2.396H14.9026V0.395996H1.29199V2.396ZM1.29199 14.0627H14.9026V12.0627H1.29199V14.0627Z" fill="#282828"/>
</svg>
