<svg width="19" height="19" viewBox="0 0 19 19" fill="none" xmlns="//www.w3.org/2000/svg">
<path fill-rule="evenodd" clip-rule="evenodd" d="M9.50786 0C4.25026 0 0 4.15623 0 9.29806C0 13.4082 2.72329 16.8873 6.50121 18.1187C6.97355 18.2113 7.14656 17.9187 7.14656 17.6725C7.14656 17.4569 7.13099 16.7181 7.13099 15.9482C4.48614 16.5025 3.93537 14.8398 3.93537 14.8398C3.51032 13.7622 2.88054 13.4853 2.88054 13.4853C2.01488 12.9157 2.94359 12.9157 2.94359 12.9157C3.90384 12.9773 4.40771 13.8701 4.40771 13.8701C5.2576 15.2862 6.62713 14.8861 7.17809 14.6398C7.25672 14.0394 7.50875 13.6238 7.77635 13.3929C5.66688 13.1773 3.44746 12.3769 3.44746 8.80536C3.44746 7.78935 3.82502 6.9581 4.42327 6.31162C4.32889 6.08076 3.99823 5.12615 4.51786 3.84848C4.51786 3.84848 5.32066 3.60213 7.1308 4.8029C7.90578 4.59937 8.70501 4.49584 9.50786 4.49497C10.3107 4.49497 11.129 4.60284 11.8847 4.8029C13.6951 3.60213 14.4979 3.84848 14.4979 3.84848C15.0175 5.12615 14.6866 6.08076 14.5923 6.31162C15.2063 6.9581 15.5683 7.78935 15.5683 8.80536C15.5683 12.3769 13.3488 13.1618 11.2236 13.3929C11.57 13.6853 11.869 14.2394 11.869 15.117C11.869 16.3638 11.8534 17.3646 11.8534 17.6723C11.8534 17.9187 12.0266 18.2113 12.4987 18.1189C16.2767 16.8871 19 13.4082 19 9.29806C19.0155 4.15623 14.7497 0 9.50786 0Z" fill="#808080"/>
</svg>
