<svg width="29" height="29" viewBox="0 0 29 29" fill="none" xmlns="//www.w3.org/2000/svg">
<path d="M15.3378 9.5195C15.5968 9.19629 15.5448 8.72427 15.2216 8.46523C14.8984 8.20618 14.4264 8.2582 14.1673 8.58141L15.3378 9.5195ZM7.62579 17.9426L8.19382 18.4323C8.19968 18.4255 8.20541 18.4186 8.21102 18.4116L7.62579 17.9426ZM7.41917 18.4477L6.67062 18.3988L6.66997 18.413L7.41917 18.4477ZM7.25 22.1005L6.5008 22.0658C6.49908 22.103 6.50013 22.1403 6.50396 22.1774L7.25 22.1005ZM8.20096 22.9306L8.22548 23.6802C8.27549 23.6785 8.32522 23.6719 8.37392 23.6604L8.20096 22.9306ZM11.826 22.0715L11.9989 22.8013L12.0106 22.7984L11.826 22.0715ZM12.2912 21.7766L12.8698 22.2539L12.8763 22.2458L12.2912 21.7766ZM20.1746 13.1447C20.4337 12.8215 20.3818 12.3495 20.0587 12.0904C19.7356 11.8312 19.2635 11.8831 19.0044 12.2063L20.1746 13.1447ZM14.1711 8.58122C13.9119 8.90434 13.9638 9.37638 14.2869 9.63553C14.6101 9.89469 15.0821 9.84283 15.3412 9.5197L14.1711 8.58122ZM16.675 6.65796L17.2601 7.1272C17.2699 7.11491 17.2794 7.10231 17.2885 7.08942L16.675 6.65796ZM18.6434 6.27129L19.1232 5.69485C19.0993 5.67497 19.0742 5.65659 19.048 5.63983L18.6434 6.27129ZM21.3464 8.52121L21.8772 7.99137C21.861 7.97506 21.8439 7.95951 21.8262 7.94477L21.3464 8.52121ZM21.7535 9.5131L22.5035 9.51722V9.51722L21.7535 9.5131ZM21.3355 10.5005L20.8106 9.96482C20.7893 9.98565 20.7693 10.0077 20.7507 10.0309L21.3355 10.5005ZM19.0046 12.2059C18.7453 12.529 18.797 13.001 19.12 13.2603C19.443 13.5196 19.9151 13.468 20.1744 13.145L19.0046 12.2059ZM15.4979 8.93931C15.4365 8.52967 15.0547 8.24735 14.645 8.30874C14.2354 8.37013 13.9531 8.75197 14.0144 9.16161L15.4979 8.93931ZM19.6905 13.4186C20.1009 13.3629 20.3884 12.9849 20.3327 12.5745C20.2769 12.164 19.899 11.8765 19.4885 11.9323L19.6905 13.4186ZM14.1673 8.58141L7.04056 17.4735L8.21102 18.4116L15.3378 9.5195L14.1673 8.58141ZM7.05776 17.4528C6.82938 17.7177 6.69352 18.0498 6.67076 18.3989L8.16758 18.4965C8.16912 18.4728 8.17833 18.4503 8.19382 18.4323L7.05776 17.4528ZM6.66997 18.413L6.5008 22.0658L7.9992 22.1352L8.16836 18.4824L6.66997 18.413ZM6.50396 22.1774C6.59423 23.0526 7.34608 23.7089 8.22548 23.6802L8.17644 22.181C8.08429 22.184 8.0055 22.1152 7.99604 22.0235L6.50396 22.1774ZM8.37392 23.6604L11.9989 22.8012L11.653 21.3417L8.028 22.2008L8.37392 23.6604ZM12.0106 22.7984C12.3475 22.7128 12.6485 22.5221 12.8697 22.2539L11.7126 21.2994C11.6943 21.3216 11.6693 21.3374 11.6413 21.3445L12.0106 22.7984ZM12.8763 22.2458L20.1746 13.1447L19.0044 12.2063L11.7061 21.3074L12.8763 22.2458ZM15.3412 9.5197L17.2601 7.1272L16.0899 6.18872L14.1711 8.58122L15.3412 9.5197ZM17.2885 7.08942C17.5041 6.78279 17.9231 6.70049 18.2387 6.90276L19.048 5.63983C18.056 5.00413 16.7393 5.26278 16.0615 6.22649L17.2885 7.08942ZM18.1636 6.84773L20.8666 9.09765L21.8262 7.94477L19.1232 5.69485L18.1636 6.84773ZM20.8156 9.05105C20.9368 9.1725 21.0045 9.33737 21.0036 9.50898L22.5035 9.51722C22.5067 8.94542 22.2812 8.39607 21.8772 7.99137L20.8156 9.05105ZM21.0036 9.50898C21.0026 9.68058 20.9331 9.8447 20.8106 9.96482L21.8605 11.0361C22.2689 10.6359 22.5004 10.089 22.5035 9.51722L21.0036 9.50898ZM20.7507 10.0309L19.0046 12.2059L20.1744 13.145L21.9204 10.97L20.7507 10.0309ZM14.0144 9.16161C14.4239 11.8941 16.9527 13.7906 19.6905 13.4186L19.4885 11.9323C17.5637 12.1938 15.7858 10.8604 15.4979 8.93931L14.0144 9.16161Z" fill="#282828"/>
</svg>
