<svg width="16" height="16" viewBox="0 0 16 16" fill="none" xmlns="//www.w3.org/2000/svg">
<path d="M4.91728 14.9999C4.91728 15.4142 5.25307 15.7499 5.66728 15.7499C6.0815 15.7499 6.41728 15.4142 6.41728 14.9999H4.91728ZM5.66728 12.6669H4.91728H5.66728ZM9.58528 14.9999C9.58528 15.4142 9.92107 15.7499 10.3353 15.7499C10.7495 15.7499 11.0853 15.4142 11.0853 14.9999H9.58528ZM5.66728 15.7499C6.0815 15.7499 6.41728 15.4142 6.41728 14.9999C6.41728 14.5857 6.0815 14.2499 5.66728 14.2499V15.7499ZM3.33328 14.9999L3.32564 15.7499H3.33328V14.9999ZM1.30128 13.2529L0.551798 13.2807C0.552943 13.3116 0.556 13.3424 0.560951 13.373L1.30128 13.2529ZM1.03228 5.99395L1.78177 5.96617C1.7805 5.93188 1.77687 5.8977 1.77092 5.8639L1.03228 5.99395ZM2.14428 3.74195L1.8033 3.07392L1.79848 3.07642L2.14428 3.74195ZM7.07928 1.22295L7.42026 1.89096L7.4218 1.89017L7.07928 1.22295ZM8.92428 1.22295L8.58177 1.89017L8.58331 1.89096L8.92428 1.22295ZM13.8593 3.74195L14.2051 3.07641L14.2003 3.07394L13.8593 3.74195ZM14.9713 5.99395L14.2326 5.8639C14.2267 5.89767 14.2231 5.93181 14.2218 5.96607L14.9713 5.99395ZM14.7013 13.2529L15.4416 13.373C15.4466 13.3425 15.4496 13.3117 15.4508 13.2808L14.7013 13.2529ZM12.6693 14.9999V15.75L12.6769 15.7499L12.6693 14.9999ZM10.3353 14.2499C9.92107 14.2499 9.58528 14.5857 9.58528 14.9999C9.58528 15.4142 9.92107 15.7499 10.3353 15.7499V14.2499ZM5.66728 14.2499C5.25307 14.2499 4.91728 14.5857 4.91728 14.9999C4.91728 15.4142 5.25307 15.7499 5.66728 15.7499V14.2499ZM10.3353 15.7499C10.7495 15.7499 11.0853 15.4142 11.0853 14.9999C11.0853 14.5857 10.7495 14.2499 10.3353 14.2499V15.7499ZM6.41728 14.9999V12.6669H4.91728V14.9999H6.41728ZM6.41728 12.6669C6.41728 11.7921 7.12646 11.0829 8.00128 11.0829V9.58295C6.29804 9.58295 4.91728 10.9637 4.91728 12.6669H6.41728ZM8.00128 11.0829C8.8761 11.0829 9.58528 11.7921 9.58528 12.6669H11.0853C11.0853 10.9637 9.70453 9.58295 8.00128 9.58295V11.0829ZM9.58528 12.6669V14.9999H11.0853V12.6669H9.58528ZM5.66728 14.2499H3.33328V15.7499H5.66728V14.2499ZM3.34092 14.25C2.6937 14.2434 2.14521 13.7718 2.04162 13.1329L0.560951 13.373C0.78137 14.7325 1.94847 15.7359 3.32564 15.7499L3.34092 14.25ZM2.05077 13.2252L1.78177 5.96617L0.282798 6.02172L0.551798 13.2807L2.05077 13.2252ZM1.77092 5.8639C1.66697 5.27348 1.95811 4.68388 2.49008 4.40747L1.79848 3.07642C0.685327 3.65481 0.0761264 4.88855 0.293644 6.124L1.77092 5.8639ZM2.48526 4.40996L7.42026 1.89096L6.73831 0.55494L1.80331 3.07394L2.48526 4.40996ZM7.4218 1.89017C7.78587 1.70328 8.2177 1.70328 8.58177 1.89017L9.2668 0.555727C8.47271 0.148091 7.53085 0.148091 6.73677 0.555727L7.4218 1.89017ZM8.58331 1.89096L13.5183 4.40996L14.2003 3.07394L9.26526 0.55494L8.58331 1.89096ZM13.5135 4.40747C14.0455 4.68388 14.3366 5.27348 14.2326 5.8639L15.7099 6.124C15.9274 4.88855 15.3182 3.65481 14.2051 3.07642L13.5135 4.40747ZM14.2218 5.96607L13.9518 13.2251L15.4508 13.2808L15.7208 6.02183L14.2218 5.96607ZM13.961 13.1329C13.8574 13.7718 13.3089 14.2434 12.6616 14.25L12.6769 15.7499C14.0541 15.7359 15.2212 14.7325 15.4416 13.373L13.961 13.1329ZM12.6693 14.2499H10.3353V15.7499H12.6693V14.2499ZM5.66728 15.7499H10.3353V14.2499H5.66728V15.7499Z" fill="#282828"/>
</svg>
